<svg width="208" height="208" viewBox="0 0 208 208" fill="none" xmlns="http://www.w3.org/2000/svg">
<circle cx="104.5" cy="104.5" r="93.5" fill="#5B5D72" fill-opacity="0.08"/>
<g filter="url(#filter0_d_2594_80997)">
<path d="M157.203 98.1219V140.727C157.197 142.843 156.778 144.937 155.97 146.89C155.161 148.842 153.979 150.614 152.49 152.105C151.002 153.596 149.237 154.776 147.296 155.578C145.355 156.38 143.277 156.787 141.18 156.777H67.0277C62.8164 156.784 58.7722 155.115 55.7724 152.132C52.7727 149.15 51.0595 145.094 51.0044 140.845V97.8859C50.9859 97.6438 51.026 97.4007 51.1213 97.1777C51.2383 96.8237 51.3553 96.5879 51.4722 96.2338L71.3552 57.8776C71.7031 57.1494 72.2529 56.5387 72.9381 56.1197C73.6232 55.7008 74.4141 55.4915 75.2149 55.5173H132.876C133.673 55.5064 134.458 55.722 135.141 56.1393C135.823 56.5567 136.376 57.1589 136.735 57.8776L156.618 96.2338C156.754 96.5409 156.872 96.856 156.969 97.1777C157.168 97.4487 157.252 97.7884 157.203 98.1219Z" fill="#EEEFF3"/>
<path d="M157.203 98.121V145.092C157.206 146.638 156.905 148.168 156.317 149.595C155.728 151.021 154.865 152.316 153.777 153.403C152.689 154.49 151.397 155.348 149.978 155.927C148.558 156.506 147.038 156.795 145.507 156.776H62.7003C61.1718 156.785 59.6565 156.49 58.2413 155.907C56.826 155.324 55.5384 154.466 54.4522 153.381C53.3659 152.296 52.5023 151.005 51.9107 149.583C51.3191 148.161 51.0111 146.635 51.0044 145.092V97.8851C50.9859 97.6429 51.026 97.3998 51.1213 97.1768H77.788C78.7417 97.1717 79.6869 97.3575 80.569 97.7234C81.4511 98.0893 82.2525 98.6279 82.9269 99.3084C83.6013 99.9889 84.1352 100.798 84.4978 101.688C84.8604 102.578 85.0445 103.532 85.0394 104.494C85.0397 106.437 85.7957 108.301 87.1447 109.687C87.8087 110.383 88.6094 110.931 89.4955 111.297C90.3817 111.663 91.3338 111.838 92.2908 111.811H116.033C116.987 111.816 117.932 111.631 118.815 111.265C119.697 110.899 120.498 110.36 121.172 109.68C121.847 108.999 122.381 108.19 122.743 107.3C123.106 106.41 123.29 105.457 123.285 104.494C123.285 102.552 124.041 100.687 125.39 99.3012C126.038 98.6163 126.819 98.074 127.685 97.7084C128.55 97.3428 129.481 97.1618 130.419 97.1768H156.969C157.168 97.4478 157.252 97.7875 157.203 98.121Z" fill="white"/>
<path d="M96.2421 129.953C95.0921 129.95 93.972 129.586 93.0399 128.913C92.1077 128.239 91.4104 127.29 91.0464 126.199C91.0087 126.086 90.9937 125.966 91.0024 125.846C91.0111 125.727 91.0432 125.61 91.097 125.503C91.1507 125.396 91.225 125.3 91.3157 125.222C91.4063 125.144 91.5115 125.084 91.6252 125.046C91.7389 125.009 91.8589 124.994 91.9784 125.002C92.0979 125.011 92.2145 125.043 92.3216 125.097C92.4287 125.151 92.5241 125.225 92.6025 125.316C92.6808 125.406 92.7406 125.512 92.7783 125.625C93.0308 126.346 93.4982 126.972 94.1175 127.419C94.7369 127.866 95.4784 128.113 96.2421 128.125C97.0106 128.132 97.7612 127.893 98.3845 127.444C99.0077 126.994 99.4709 126.357 99.7066 125.625C99.7827 125.396 99.947 125.206 100.163 125.097C100.38 124.988 100.63 124.97 100.86 125.046C101.089 125.123 101.279 125.287 101.388 125.503C101.496 125.719 101.515 125.97 101.439 126.199C101.091 127.301 100.398 128.261 99.462 128.937C98.5259 129.613 97.3967 129.97 96.2421 129.953Z" fill="#616FCF"/>
<path d="M112.775 129.953C111.625 129.95 110.505 129.586 109.573 128.913C108.641 128.239 107.944 127.29 107.58 126.199C107.542 126.086 107.527 125.966 107.536 125.846C107.544 125.727 107.576 125.61 107.63 125.503C107.739 125.287 107.929 125.123 108.158 125.046C108.388 124.97 108.639 124.988 108.855 125.097C109.071 125.206 109.235 125.396 109.311 125.625C109.564 126.346 110.031 126.972 110.651 127.419C111.27 127.866 112.012 128.113 112.775 128.125C113.544 128.132 114.294 127.893 114.918 127.444C115.541 126.994 116.004 126.357 116.24 125.625C116.316 125.396 116.48 125.206 116.696 125.097C116.913 124.988 117.163 124.97 117.393 125.046C117.623 125.123 117.813 125.287 117.921 125.503C118.03 125.719 118.048 125.97 117.972 126.199C117.625 127.301 116.931 128.261 115.995 128.937C115.059 129.613 113.93 129.97 112.775 129.953Z" fill="#616FCF"/>
<path d="M104.213 140.426C104.651 140.426 105.079 140.296 105.443 140.053C105.806 139.81 106.09 139.464 106.258 139.06C106.425 138.655 106.469 138.211 106.384 137.781C106.298 137.352 106.087 136.958 105.778 136.648C105.468 136.339 105.074 136.128 104.645 136.043C104.215 135.957 103.771 136.001 103.366 136.168C102.962 136.336 102.616 136.62 102.373 136.983C102.13 137.347 102 137.775 102 138.213C102.001 138.8 102.234 139.362 102.649 139.777C103.064 140.192 103.626 140.426 104.213 140.426Z" fill="#616FCF"/>
</g>
<path d="M136.18 41.5901L135.59 46.3108" stroke="#616FCF" stroke-width="2.36037" stroke-linecap="round"/>
<path d="M150.932 43.3604L142.081 52.2117" stroke="#616FCF" stroke-width="2.36037" stroke-linecap="round"/>
<path d="M152.113 58.1127L146.802 59.2929" stroke="#616FCF" stroke-width="2.36037" stroke-linecap="round"/>
<defs>
<filter id="filter0_d_2594_80997" x="27" y="41.5151" width="154.217" height="149.262" filterUnits="userSpaceOnUse" color-interpolation-filters="sRGB">
<feFlood flood-opacity="0" result="BackgroundImageFix"/>
<feColorMatrix in="SourceAlpha" type="matrix" values="0 0 0 0 0 0 0 0 0 0 0 0 0 0 0 0 0 0 127 0" result="hardAlpha"/>
<feOffset dy="10"/>
<feGaussianBlur stdDeviation="12"/>
<feComposite in2="hardAlpha" operator="out"/>
<feColorMatrix type="matrix" values="0 0 0 0 0.768627 0 0 0 0 0.780392 0 0 0 0 0.843137 0 0 0 0.54 0"/>
<feBlend mode="normal" in2="BackgroundImageFix" result="effect1_dropShadow_2594_80997"/>
<feBlend mode="normal" in="SourceGraphic" in2="effect1_dropShadow_2594_80997" result="shape"/>
</filter>
</defs>
</svg>
